<svg width="128" height="128" viewBox="0 0 128 128" fill="none" xmlns="http://www.w3.org/2000/svg">
  <defs>
    <linearGradient id="taplinkGradient" x1="18" y1="110" x2="110" y2="18" gradientUnits="userSpaceOnUse">
      <stop stop-color="#5B2CFF" />
      <stop offset="0.52" stop-color="#9D1DFF" />
      <stop offset="1" stop-color="#FF3A93" />
    </linearGradient>
    <radialGradient id="taplinkGlow" cx="0" cy="0" r="1" gradientUnits="userSpaceOnUse" gradientTransform="translate(92 28) rotate(132.546) scale(96.7143)">
      <stop stop-color="#FF64AE" stop-opacity="0.58" />
      <stop offset="1" stop-color="#FF64AE" stop-opacity="0" />
    </radialGradient>
  </defs>
  <rect x="12" y="12" width="104" height="104" rx="30" fill="url(#taplinkGradient)" />
  <rect x="12" y="12" width="104" height="104" rx="30" fill="url(#taplinkGlow)" />
  <path
    d="M44.815 41.642C49.112 37.196 55.716 35.387 61.736 36.95C71.052 39.37 76.69 49.022 74.362 58.504C73.647 61.422 72.139 64.083 69.998 66.155L59.603 76.278C55.306 80.724 48.702 82.533 42.682 80.97C33.366 78.55 27.728 68.898 30.056 59.416C30.771 56.498 32.279 53.837 34.42 51.765L44.815 41.642Z"
    fill="#09090F"
  />
  <path
    d="M50.534 50.484C53.963 46.937 59.578 46.245 63.773 48.813C69.411 52.263 71.174 59.775 67.709 65.596C67.181 66.484 66.538 67.298 65.798 68.019L58.745 74.888C55.316 78.435 49.701 79.127 45.506 76.559C39.868 73.109 38.105 65.597 41.57 59.776C42.098 58.888 42.741 58.074 43.481 57.353L50.534 50.484Z"
    fill="url(#taplinkGradient)"
  />
  <circle cx="49.5" cy="79.5" r="10.5" fill="#5B2CFF" />
  <circle cx="78.5" cy="50.5" r="10.5" fill="#FF3A93" />
  <path
    d="M49.828 79.177L78.177 50.828"
    stroke="#09090F"
    stroke-width="9"
    stroke-linecap="round"
  />
</svg>
